<?xml version="1.0"?>
<svg width="200" height="480" xmlns="http://www.w3.org/2000/svg" xmlns:svg="http://www.w3.org/2000/svg">
 <!-- Created with SVG-edit - https://github.com/SVG-Edit/svgedit-->
 <defs>
  <!-- 矩形镂空遮罩：白色平行四边形（保留）+ 黑色圆形（抠除） -->
  <mask id="cutout-mask">
   <path d="m70.73,133.6l101.13,191.44l-43.8,22.22l-101.13,-191.44l43.8,-22.22z" fill="white" stroke="white" stroke-width="2"/>
   <path d="m64.5,165.5c0,-9.67 7.83,-17.5 17.5,-17.5c9.67,0 17.5,7.83 17.5,17.5c0,9.67 -7.83,17.5 -17.5,17.5c-9.67,0 -17.5,-7.83 -17.5,-17.5z" fill="black" stroke="black" stroke-width="2"/>
  </mask>
  <!-- 描边裁剪遮罩：将圆形描边限制在平行四边形（含描边）范围内 -->
  <mask id="clip-stroke">
   <path d="m70.73,133.6l101.13,191.44l-43.8,22.22l-101.13,-191.44l43.8,-22.22z" fill="white" stroke="white" stroke-width="2"/>
  </mask>
 </defs>
 <g class="layer" display="inline">
  <title>Layer 1</title>
  <!-- 缺口描边：clip-stroke 限制圆形描边只在平行四边形内可见，放在矩形下方让矩形盖住多余部分 -->
  <path d="m64.5,165.5c0,-9.67 7.83,-17.5 17.5,-17.5c9.67,0 17.5,7.83 17.5,17.5c0,9.67 -7.83,17.5 -17.5,17.5c-9.67,0 -17.5,-7.83 -17.5,-17.5z" fill="none" id="svg_15" mask="url(#clip-stroke)" stroke="#000000" stroke-width="2"/>
  <!-- 矩形（带镂空）放在圆形上方，盖住缺口以外的圆弧 -->
  <path d="m70.73,133.6l101.13,191.44l-43.8,22.22l-101.13,-191.44l43.8,-22.22z" fill="#e5e5e5" id="svg_3" mask="url(#cutout-mask)" stroke="#000000" stroke-width="2"/>
  <rect fill="#C19A6B" height="61" id="svg_2" stroke="#000000" stroke-width="2" transform="matrix(0.886023 0.554188 -0.544004 0.90261 191.115 -19.0802) matrix(0.537085 -0.845334 0.859641 0.508888 -201.171 270.68)" width="45" x="120.24" y="169.04"/>
  <ellipse cx="150.5" cy="127.93" fill="#C19A6B" id="svg_1" rx="27" ry="27" stroke="#000000" stroke-width="2"/>
  <ellipse cx="150.5" cy="339" fill="#C19A6B" id="svg_4" rx="27" ry="27" stroke="#000000" stroke-width="2"/>
 </g>
</svg>
